<svg xmlns="http://www.w3.org/2000/svg" width="60.025" height="60.025" viewBox="0 0 60.025 60.025">
  <g id="Group_6" data-name="Group 6" transform="translate(-218.762 -788)">
    <path id="Path_2691" data-name="Path 2691" d="M30.012,0A30.012,30.012,0,1,1,0,30.012,30.012,30.012,0,0,1,30.012,0Z" transform="translate(218.762 788)" fill="#164d59"/>
    <path id="Path_2681" data-name="Path 2681" d="M264.341,1361.339l-10.468,13.812a30.07,30.07,0,0,1-20.582-21.139l29.009-21.563,6.951,3.941-5.169,4.914,4.211,5.167-4.23,4.8Z" transform="translate(-13.539 -528.329)" fill-rule="evenodd" opacity="0.3" style="isolation: isolate"/>
    <path id="Path_2682" data-name="Path 2682" d="M253.569,1361.778l.08-14.774,4.034.01.556-4.924-4.514-.008c-.051-4.1.118-4.8,1.516-5.2,1.694.062,3.42.008,3.42.008l.008-4.378c-4.572-1.5-10.332-.622-10,9.554l-3.966-.008-.01,4.924,3.75.008-.047,14.772Z" transform="translate(-2.789 -528.807)" fill="#fff" fill-rule="evenodd"/>
  </g>
</svg>
