<svg xmlns="http://www.w3.org/2000/svg" width="60.025" height="60.025" viewBox="0 0 60.025 60.025">
  <g id="Group_7" data-name="Group 7" transform="translate(-140 -788)">
    <circle id="Ellipse_4" data-name="Ellipse 4" cx="30.012" cy="30.012" r="30.012" transform="translate(140 788)" fill="#164d59"/>
    <path id="Path_2685" data-name="Path 2685" d="M209.024,1332.256l-15.916,7.108a30.033,30.033,0,0,0,39.4,35.375l4.693-13.719s-3.517-12.2-4.271-15.415c-10.036-.8-15-4.6-15-4.6l-4.345,3.272-5.971-3.059,4.578-2.922Z" transform="translate(-52.248 -528.51)" fill-rule="evenodd" opacity="0.3" style="isolation: isolate"/>
    <path id="Path_2686" data-name="Path 2686" d="M229.791,1361.179l-6.137-.012.027-12.922c.029-.385-.981-1.951-3.309-2.019s-3.389,1.673-3.348,2.229c.029.387-.025,12.526-.025,12.463l-6.475-.012.136-19.812,5.884.012-.006,2a10,10,0,0,1,6.871-2.658c4.44.015,6.37,4.677,6.41,5.359S229.791,1361.179,229.791,1361.179Zm-26.452-22.327a3.373,3.373,0,1,1,3.367-3.368A3.367,3.367,0,0,1,203.339,1338.852Zm3.2,22.4-6.449-.013.041-20.4,6.449.013Z" transform="translate(-44.954 -528.652)" fill="#fff" fill-rule="evenodd"/>
  </g>
</svg>
